<svg width="197" height="60" viewBox="0 0 197 60" fill="none" xmlns="http://www.w3.org/2000/svg">
<path d="M20.36 30.32C20.9733 31.1733 21.4267 32.08 21.72 33.04C22.0133 33.9733 22.16 34.9867 22.16 36.08C22.16 38.8267 21.1733 41.1067 19.2 42.92C17.2267 44.7067 14.8 45.6 11.92 45.6C8.74667 45.6 6.09333 44.6267 3.96 42.68C1.85333 40.7067 0.8 38.3733 0.8 35.68C1.65333 35.2533 2.68 34.8933 3.88 34.6C5.10667 34.28 6.12 34.12 6.92 34.12C6.92 36.1467 7.29333 37.7867 8.04 39.04C8.81333 40.2667 9.85333 40.88 11.16 40.88C12.0933 40.88 12.8133 40.6267 13.32 40.12C13.8267 39.5867 14.08 38.8667 14.08 37.96C14.08 37.1867 13.8133 36.44 13.28 35.72C12.7733 34.9733 11.6267 33.92 9.84 32.56C8.50667 31.5467 7.52 30.7333 6.88 30.12C6.24 29.5067 5.69333 28.9067 5.24 28.32C4.6 27.4133 4.12 26.48 3.8 25.52C3.48 24.5333 3.32 23.48 3.32 22.36C3.32 19.6933 4.26667 17.52 6.16 15.84C8.08 14.16 10.5867 13.32 13.68 13.32C16.4267 13.32 18.6267 13.9867 20.28 15.32C21.96 16.6267 23.0667 18.5733 23.6 21.16C22.8267 21.6667 21.9467 22.0667 20.96 22.36C19.9733 22.6267 18.68 22.8133 17.08 22.92C16.84 21.2667 16.44 20.08 15.88 19.36C15.32 18.64 14.5467 18.28 13.56 18.28C12.9467 18.28 12.4533 18.48 12.08 18.88C11.7333 19.2533 11.56 19.76 11.56 20.4C11.56 21.28 11.8267 22.12 12.36 22.92C12.8933 23.72 14.0667 24.8 15.88 26.16C17.2133 27.1467 18.1867 27.9333 18.8 28.52C19.4133 29.1067 19.9333 29.7067 20.36 30.32ZM36.5241 34.72C37.4307 34.8267 38.3507 35.0667 39.2841 35.44C40.2441 35.8133 41.0974 36.2933 41.8441 36.88C41.8441 38.8 41.2441 40.4267 40.0441 41.76C38.8441 43.0933 37.1774 43.76 35.0441 43.76C32.3507 43.76 30.2574 42.8133 28.7641 40.92C27.2974 39 26.5641 36.2267 26.5641 32.6C26.5641 31.7467 26.5774 30.8667 26.6041 29.96C26.6307 29.0267 26.6841 28.0533 26.7641 27.04C26.2307 26.96 25.7241 26.8667 25.2441 26.76C24.7641 26.6533 24.3374 26.5467 23.9641 26.44C23.9641 25.5867 24.0441 24.7733 24.2041 24C24.3641 23.2267 24.5907 22.6267 24.8841 22.2C25.1507 22.28 25.4707 22.3733 25.8441 22.48C26.2441 22.56 26.7241 22.64 27.2841 22.72C27.4441 21.6267 27.6041 20.68 27.7641 19.88C27.9507 19.0533 28.1374 18.32 28.3241 17.68C29.9241 17.68 31.4707 17.7867 32.9641 18C34.4841 18.1867 35.7107 18.44 36.6441 18.76C36.4841 19.4 36.3107 20.12 36.1241 20.92C35.9374 21.6933 35.7774 22.4933 35.6441 23.32C36.7641 23.3467 37.8307 23.3467 38.8441 23.32C39.8841 23.2667 40.7907 23.1867 41.5641 23.08C41.5641 23.6933 41.4974 24.3867 41.3641 25.16C41.2307 25.9333 41.0441 26.64 40.8041 27.28C40.1374 27.4133 39.2841 27.52 38.2441 27.6C37.2041 27.6533 36.1107 27.6667 34.9641 27.64C34.8307 28.6533 34.7241 29.6667 34.6441 30.68C34.5641 31.6933 34.5241 32.6533 34.5241 33.56C34.5241 35.8 34.6041 37.32 34.7641 38.12C34.9241 38.8933 35.1907 39.28 35.5641 39.28C35.8041 39.28 36.0174 38.88 36.2041 38.08C36.3907 37.2533 36.4974 36.1333 36.5241 34.72ZM52.0119 44.4C49.1852 44.4 47.0385 43.4533 45.5719 41.56C44.1052 39.6667 43.3719 36.9467 43.3719 33.4C43.3719 31.4533 43.5719 29.4267 43.9719 27.32C44.3985 25.1867 44.8119 23.7333 45.2119 22.96C45.8252 22.8 46.4385 22.68 47.0519 22.6C47.6919 22.52 48.2785 22.48 48.8119 22.48C49.6385 22.48 50.3452 22.5333 50.9319 22.64C51.5452 22.7467 52.0119 22.8933 52.3319 23.08C52.0919 24.52 51.9052 25.9867 51.7719 27.48C51.6385 28.9733 51.5719 30.4133 51.5719 31.8C51.5719 34.2533 51.7185 36.1733 52.0119 37.56C52.3052 38.92 52.7185 39.6 53.2519 39.6C53.7585 39.6 54.1585 38.8133 54.4519 37.24C54.7452 35.6667 54.8919 33.6133 54.8919 31.08C54.8919 29.88 54.8385 28.64 54.7319 27.36C54.6252 26.0533 54.5185 25.1467 54.4119 24.64C55.4252 24.2133 56.6785 23.88 58.1719 23.64C59.6652 23.3733 61.1185 23.24 62.5319 23.24C62.6652 23.8533 62.7585 24.64 62.8119 25.6C62.8919 26.56 62.9319 27.6 62.9319 28.72C62.9319 33.84 62.0119 37.7333 60.1719 40.4C58.3319 43.0667 55.6119 44.4 52.0119 44.4ZM85.085 44.88C84.3117 45.0933 83.325 45.28 82.125 45.44C80.9517 45.6 79.885 45.68 78.925 45.68C78.8183 45.1467 78.6983 44.52 78.565 43.8C78.4317 43.08 78.2983 42.2133 78.165 41.2C77.5783 42.56 76.8317 43.56 75.925 44.2C75.045 44.8667 73.965 45.2 72.685 45.2C70.3383 45.2 68.525 44.3333 67.245 42.6C65.965 40.8667 65.325 38.4533 65.325 35.36C65.325 31.44 66.2983 28.32 68.245 26C70.2183 23.6533 72.8717 22.48 76.205 22.48C76.3383 22.48 76.445 22.48 76.525 22.48C76.6317 22.48 76.725 22.4933 76.805 22.52C76.7783 21.3467 76.7517 20.2133 76.725 19.12C76.6983 18 76.685 16.9467 76.685 15.96C77.2983 15.64 78.165 15.3867 79.285 15.2C80.405 15.0133 81.5517 14.92 82.725 14.92C83.2583 14.92 83.7783 14.9467 84.285 15C84.7917 15.0533 85.2983 15.1333 85.805 15.24C85.5383 17.1067 85.325 20.12 85.165 24.28C85.0317 28.44 84.965 33.6933 84.965 40.04C84.965 40.7867 84.965 41.5333 84.965 42.28C84.9917 43 85.0317 43.8667 85.085 44.88ZM73.125 34.4C73.125 36.1067 73.2983 37.4133 73.645 38.32C73.9917 39.2 74.4983 39.64 75.165 39.64C75.645 39.64 76.085 39.24 76.485 38.44C76.9117 37.64 77.245 36.5067 77.485 35.04C77.3517 33.2 77.245 31.6533 77.165 30.4C77.085 29.12 77.0183 27.9333 76.965 26.84H76.685C75.5917 26.84 74.725 27.5067 74.085 28.84C73.445 30.1467 73.125 32 73.125 34.4ZM109.24 37.24C109.24 42.6533 108.253 46.7733 106.28 49.6C104.333 52.4533 101.546 53.88 97.9197 53.88C95.413 53.88 93.453 53.2533 92.0397 52C90.653 50.7733 89.9597 49.2667 89.9597 47.48C90.7864 46.84 91.773 46.2933 92.9197 45.84C94.093 45.4133 95.2797 45.12 96.4797 44.96C96.7197 46.6133 96.9997 47.76 97.3197 48.4C97.6397 49.0667 98.0664 49.4 98.5997 49.4C99.453 49.4 100.08 48.6933 100.48 47.28C100.906 45.8933 101.16 43.56 101.24 40.28C100.546 41.32 99.7597 42.0933 98.8797 42.6C98.0264 43.1067 97.053 43.36 95.9597 43.36C93.933 43.36 92.2397 42.44 90.8797 40.6C89.5464 38.7333 88.8797 36.3867 88.8797 33.56C88.8797 31.7733 88.9997 30.08 89.2397 28.48C89.4797 26.8533 89.9197 24.84 90.5597 22.44C91.9197 22.44 93.1997 22.5067 94.3997 22.64C95.6264 22.7467 96.933 22.9333 98.3197 23.2C97.7864 25.2533 97.413 27.0133 97.1997 28.48C96.9864 29.9467 96.8797 31.4933 96.8797 33.12C96.8797 34.4533 97.053 35.56 97.3997 36.44C97.7464 37.2933 98.213 37.72 98.7997 37.72C99.2797 37.72 99.7064 37.5467 100.08 37.2C100.48 36.8267 100.84 36.2667 101.16 35.52C101.053 33.52 100.84 31.4267 100.52 29.24C100.2 27.0267 99.893 25.44 99.5997 24.48C100.533 24.1333 101.733 23.8667 103.2 23.68C104.666 23.4933 106.186 23.4 107.76 23.4C108.133 24.68 108.466 26.72 108.76 29.52C109.08 32.2933 109.24 34.8667 109.24 37.24ZM132.169 33.24C132.169 36.9733 131.103 40.1067 128.969 42.64C126.836 45.1467 124.236 46.4 121.169 46.4C119.863 46.4 118.636 46.2533 117.489 45.96C116.369 45.6933 114.996 45.12 113.369 44.24C113.209 41.7067 113.076 38.9467 112.969 35.96C112.863 32.9467 112.809 30.08 112.809 27.36C112.809 25.1733 112.836 23.2533 112.889 21.6C112.943 19.9467 113.036 18.48 113.169 17.2C113.729 16.88 114.556 16.6267 115.649 16.44C116.769 16.2533 117.996 16.16 119.329 16.16C120.049 16.16 120.623 16.1867 121.049 16.24C121.503 16.2933 121.956 16.3733 122.409 16.48C122.143 17.84 121.903 19.28 121.689 20.8C121.476 22.32 121.303 23.9067 121.169 25.56C121.703 25 122.316 24.5867 123.009 24.32C123.703 24.0267 124.476 23.88 125.329 23.88C127.569 23.88 129.263 24.68 130.409 26.28C131.583 27.88 132.169 30.2 132.169 33.24ZM120.529 40.8C120.716 40.9333 120.903 41.04 121.089 41.12C121.276 41.1733 121.449 41.2 121.609 41.2C122.463 41.2 123.103 40.4133 123.529 38.84C123.983 37.24 124.209 34.9467 124.209 31.96C124.209 30.8933 124.076 30.1067 123.809 29.6C123.569 29.0667 123.196 28.8 122.689 28.8C122.289 28.8 121.929 28.9733 121.609 29.32C121.316 29.6667 121.036 30.2133 120.769 30.96C120.689 32.48 120.623 34.0667 120.569 35.72C120.543 37.3467 120.529 39.04 120.529 40.8ZM141.112 13.76C141.912 13.76 142.659 13.8267 143.352 13.96C144.046 14.0933 144.632 14.28 145.112 14.52C144.872 15.08 144.606 15.9067 144.312 17C144.019 18.0667 143.806 19.0133 143.672 19.84C142.766 20 141.752 20.12 140.632 20.2C139.512 20.2533 138.246 20.2667 136.832 20.24C136.646 19.6533 136.499 19.0667 136.392 18.48C136.312 17.8933 136.272 17.32 136.272 16.76C136.272 16.3333 136.286 15.96 136.312 15.64C136.366 15.32 136.432 15.0267 136.512 14.76C137.126 14.4133 137.806 14.16 138.552 14C139.326 13.84 140.179 13.76 141.112 13.76ZM135.552 23.84C136.272 23.4133 137.112 23.0933 138.072 22.88C139.032 22.6667 140.072 22.56 141.192 22.56C141.726 22.56 142.246 22.5867 142.752 22.64C143.286 22.6933 143.792 22.76 144.272 22.84C143.686 24.5733 143.166 27.3333 142.712 31.12C142.286 34.9067 141.992 39.0533 141.832 43.56C141.272 43.8533 140.552 44.08 139.672 44.24C138.819 44.4267 137.926 44.52 136.992 44.52C136.592 44.52 136.246 44.5067 135.952 44.48C135.659 44.4533 135.406 44.4133 135.192 44.36C134.792 40.5467 134.619 36.8933 134.672 33.4C134.726 29.88 135.019 26.6933 135.552 23.84ZM155.301 35.88C155.354 37.1867 155.447 38.5333 155.581 39.92C155.741 41.28 155.927 42.6533 156.141 44.04C155.474 44.28 154.727 44.44 153.901 44.52C153.074 44.6 152.167 44.6 151.181 44.52C150.621 44.4667 150.167 44.4 149.821 44.32C149.474 44.24 149.141 44.1467 148.821 44.04C148.101 40.92 147.581 37.36 147.261 33.36C146.941 29.3333 146.901 25.8 147.141 22.76C147.727 22.5733 148.367 22.44 149.061 22.36C149.754 22.2533 150.487 22.2 151.261 22.2C152.167 22.2 153.007 22.2667 153.781 22.4C154.581 22.5333 155.287 22.72 155.901 22.96C155.794 23.36 155.701 23.84 155.621 24.4C155.541 24.9333 155.474 25.5333 155.421 26.2C156.087 24.68 156.901 23.4933 157.861 22.64C158.821 21.76 159.807 21.32 160.821 21.32C162.314 21.32 163.501 21.9467 164.381 23.2C165.261 24.4267 165.701 26.1333 165.701 28.32C165.701 28.6933 165.701 28.9867 165.701 29.2C165.701 29.3867 165.687 29.56 165.661 29.72C164.834 30.0133 163.794 30.2133 162.541 30.32C161.314 30.4267 159.981 30.44 158.541 30.36C158.567 29.96 158.581 29.6933 158.581 29.56C158.607 29.4 158.621 29.2533 158.621 29.12C158.621 28.4533 158.541 27.9467 158.381 27.6C158.221 27.2267 157.981 27.04 157.661 27.04C157.154 27.04 156.687 27.8133 156.261 29.36C155.834 30.9067 155.514 33.08 155.301 35.88ZM185.554 44.88C184.78 45.0933 183.794 45.28 182.594 45.44C181.42 45.6 180.354 45.68 179.394 45.68C179.287 45.1467 179.167 44.52 179.034 43.8C178.9 43.08 178.767 42.2133 178.634 41.2C178.047 42.56 177.3 43.56 176.394 44.2C175.514 44.8667 174.434 45.2 173.154 45.2C170.807 45.2 168.994 44.3333 167.714 42.6C166.434 40.8667 165.794 38.4533 165.794 35.36C165.794 31.44 166.767 28.32 168.714 26C170.687 23.6533 173.34 22.48 176.674 22.48C176.807 22.48 176.914 22.48 176.994 22.48C177.1 22.48 177.194 22.4933 177.274 22.52C177.247 21.3467 177.22 20.2133 177.194 19.12C177.167 18 177.154 16.9467 177.154 15.96C177.767 15.64 178.634 15.3867 179.754 15.2C180.874 15.0133 182.02 14.92 183.194 14.92C183.727 14.92 184.247 14.9467 184.754 15C185.26 15.0533 185.767 15.1333 186.274 15.24C186.007 17.1067 185.794 20.12 185.634 24.28C185.5 28.44 185.434 33.6933 185.434 40.04C185.434 40.7867 185.434 41.5333 185.434 42.28C185.46 43 185.5 43.8667 185.554 44.88ZM173.594 34.4C173.594 36.1067 173.767 37.4133 174.114 38.32C174.46 39.2 174.967 39.64 175.634 39.64C176.114 39.64 176.554 39.24 176.954 38.44C177.38 37.64 177.714 36.5067 177.954 35.04C177.82 33.2 177.714 31.6533 177.634 30.4C177.554 29.12 177.487 27.9333 177.434 26.84H177.154C176.06 26.84 175.194 27.5067 174.554 28.84C173.914 30.1467 173.594 32 173.594 34.4Z" fill="#4FB1F8"/>
<path d="M136 14.5L138 14L140.5 13.5H143L145 14.5L144 20L136.5 20.5L136 14.5Z" fill="#ED9C51"/>
</svg>
